<?xml version="1.0" encoding="UTF-8"?>
<svg xmlns="http://www.w3.org/2000/svg" xmlns:xlink="http://www.w3.org/1999/xlink" width="423.73pt" height="437.3pt" viewBox="0 0 423.73 437.3" version="1.1">
<g id="surface1">
<path style=" stroke:none;fill-rule:nonzero;fill:rgb(0%,0%,0%);fill-opacity:1;" d="M 423.734375 218.652344 C 423.734375 339.410156 328.878906 437.300781 211.867188 437.300781 C 94.855469 437.300781 0 339.410156 0 218.652344 C 0 97.890625 94.855469 -0.00390625 211.867188 -0.00390625 C 328.878906 -0.00390625 423.734375 97.890625 423.734375 218.652344 "/>
<path style=" stroke:none;fill-rule:nonzero;fill:rgb(100%,100%,0%);fill-opacity:1;" d="M 419.964844 218.652344 C 419.964844 337.261719 326.796875 433.410156 211.867188 433.410156 C 96.941406 433.410156 3.769531 337.261719 3.769531 218.652344 C 3.769531 100.039063 96.941406 3.886719 211.867188 3.886719 C 326.796875 3.886719 419.964844 100.039063 419.964844 218.652344 "/>
<path style=" stroke:none;fill-rule:nonzero;fill:rgb(0%,0%,0%);fill-opacity:1;" d="M 366.003906 218.648438 C 366.003906 305.203125 296.992188 375.371094 211.867188 375.371094 C 126.742188 375.371094 57.730469 305.203125 57.730469 218.648438 C 57.730469 132.09375 126.742188 61.925781 211.867188 61.925781 C 296.992188 61.925781 366.003906 132.09375 366.003906 218.648438 "/>
<path style=" stroke:none;fill-rule:nonzero;fill:rgb(100%,100%,0%);fill-opacity:1;" d="M 103.234375 221.753906 L 151.863281 221.753906 L 151.863281 207.273438 L 194.269531 207.273438 L 194.269531 221.753906 L 243.9375 221.753906 L 243.9375 207.273438 L 286.34375 207.273438 L 286.34375 221.753906 L 329.796875 221.753906 L 329.796875 207.273438 L 360.382813 207.273438 C 354.710938 128.03125 290.410156 65.542969 211.863281 65.542969 C 133.324219 65.542969 69.027344 128.03125 63.355469 207.273438 L 103.234375 207.273438 L 103.234375 221.753906 "/>
<path style=" stroke:none;fill-rule:nonzero;fill:rgb(0%,0%,0%);fill-opacity:1;" d="M 62.976563 221.753906 L 103.234375 221.753906 L 103.234375 207.273438 L 63.355469 207.273438 C 63.085938 211.035156 62.902344 214.820313 62.902344 218.652344 C 62.902344 219.691406 62.960938 220.71875 62.976563 221.753906 "/>
<path style=" stroke:none;fill-rule:nonzero;fill:rgb(0%,0%,0%);fill-opacity:1;" d="M 194.269531 207.273438 L 151.863281 207.273438 L 151.863281 221.753906 L 194.269531 221.753906 L 194.269531 207.273438 "/>
<path style=" stroke:none;fill-rule:nonzero;fill:rgb(0%,0%,0%);fill-opacity:1;" d="M 286.34375 207.273438 L 243.9375 207.273438 L 243.9375 221.753906 L 286.34375 221.753906 L 286.34375 207.273438 "/>
<path style=" stroke:none;fill-rule:nonzero;fill:rgb(0%,0%,0%);fill-opacity:1;" d="M 329.796875 221.753906 L 360.757813 221.753906 C 360.777344 220.71875 360.835938 219.691406 360.835938 218.652344 C 360.835938 214.820313 360.644531 211.035156 360.382813 207.273438 L 329.796875 207.273438 L 329.796875 221.753906 "/>
<path style=" stroke:none;fill-rule:nonzero;fill:rgb(0%,0%,0%);fill-opacity:1;" d="M 243.9375 237.273438 L 243.9375 221.753906 L 194.269531 221.753906 L 194.269531 237.273438 L 243.9375 237.273438 "/>
<path style=" stroke:none;fill-rule:nonzero;fill:rgb(0%,0%,0%);fill-opacity:1;" d="M 329.796875 237.273438 L 329.796875 221.753906 L 286.34375 221.753906 L 286.34375 237.273438 L 329.796875 237.273438 "/>
<path style=" stroke:none;fill-rule:nonzero;fill:rgb(0%,0%,0%);fill-opacity:1;" d="M 151.863281 237.273438 L 151.863281 221.753906 L 103.234375 221.753906 L 103.234375 237.273438 L 151.863281 237.273438 "/>
<path style=" stroke:none;fill-rule:nonzero;fill:rgb(100%,100%,100%);fill-opacity:1;" d="M 103.234375 221.753906 L 62.976563 221.753906 C 63.082031 226.996094 63.433594 232.171875 64.039063 237.273438 L 103.234375 237.273438 L 103.234375 221.753906 "/>
<path style=" stroke:none;fill-rule:nonzero;fill:rgb(100%,100%,100%);fill-opacity:1;" d="M 194.269531 237.273438 L 194.269531 221.753906 L 151.863281 221.753906 L 151.863281 237.273438 L 194.269531 237.273438 "/>
<path style=" stroke:none;fill-rule:nonzero;fill:rgb(100%,100%,100%);fill-opacity:1;" d="M 286.34375 237.273438 L 286.34375 221.753906 L 243.9375 221.753906 L 243.9375 237.273438 L 286.34375 237.273438 "/>
<path style=" stroke:none;fill-rule:nonzero;fill:rgb(100%,100%,100%);fill-opacity:1;" d="M 359.691406 237.273438 C 360.296875 232.171875 360.652344 226.996094 360.757813 221.753906 L 329.796875 221.753906 L 329.796875 237.273438 L 359.691406 237.273438 "/>
<path style=" stroke:none;fill-rule:nonzero;fill:rgb(100%,100%,100%);fill-opacity:1;" d="M 329.796875 250.71875 L 329.796875 237.273438 L 286.34375 237.273438 L 286.34375 250.71875 L 329.796875 250.71875 "/>
<path style=" stroke:none;fill-rule:nonzero;fill:rgb(100%,100%,100%);fill-opacity:1;" d="M 151.863281 237.273438 L 103.234375 237.273438 L 103.234375 250.71875 L 151.863281 250.71875 L 151.863281 237.273438 "/>
<path style=" stroke:none;fill-rule:nonzero;fill:rgb(100%,100%,100%);fill-opacity:1;" d="M 243.9375 250.71875 L 243.9375 237.273438 L 194.269531 237.273438 L 194.269531 250.71875 L 243.9375 250.71875 "/>
<path style=" stroke:none;fill-rule:nonzero;fill:rgb(0%,0%,0%);fill-opacity:1;" d="M 103.234375 250.71875 L 103.234375 237.273438 L 64.039063 237.273438 C 64.574219 241.816406 65.285156 246.304688 66.203125 250.71875 L 103.234375 250.71875 "/>
<path style=" stroke:none;fill-rule:nonzero;fill:rgb(0%,0%,0%);fill-opacity:1;" d="M 194.269531 250.71875 L 194.269531 237.273438 L 151.863281 237.273438 L 151.863281 250.71875 L 194.269531 250.71875 "/>
<path style=" stroke:none;fill-rule:nonzero;fill:rgb(0%,0%,0%);fill-opacity:1;" d="M 286.34375 250.71875 L 286.34375 237.273438 L 243.9375 237.273438 L 243.9375 250.71875 L 286.34375 250.71875 "/>
<path style=" stroke:none;fill-rule:nonzero;fill:rgb(0%,0%,0%);fill-opacity:1;" d="M 329.796875 250.71875 L 357.535156 250.71875 C 358.449219 246.304688 359.160156 241.816406 359.691406 237.273438 L 329.796875 237.273438 L 329.796875 250.71875 "/>
<path style=" stroke:none;fill-rule:nonzero;fill:rgb(0%,0%,0%);fill-opacity:1;" d="M 286.34375 266.238281 L 329.796875 266.238281 L 329.796875 250.71875 L 286.34375 250.71875 L 286.34375 266.238281 "/>
<path style=" stroke:none;fill-rule:nonzero;fill:rgb(0%,0%,0%);fill-opacity:1;" d="M 243.9375 266.238281 L 243.9375 250.71875 L 194.269531 250.71875 L 194.269531 266.238281 L 243.9375 266.238281 "/>
<path style=" stroke:none;fill-rule:nonzero;fill:rgb(0%,0%,0%);fill-opacity:1;" d="M 151.863281 266.238281 L 151.863281 250.71875 L 103.234375 250.71875 L 103.234375 266.238281 L 151.863281 266.238281 "/>
<path style=" stroke:none;fill-rule:nonzero;fill:rgb(100%,100%,100%);fill-opacity:1;" d="M 103.234375 250.71875 L 66.203125 250.71875 C 67.296875 256 68.664063 261.175781 70.277344 266.238281 L 103.234375 266.238281 L 103.234375 250.71875 "/>
<path style=" stroke:none;fill-rule:nonzero;fill:rgb(100%,100%,100%);fill-opacity:1;" d="M 194.269531 250.71875 L 151.863281 250.71875 L 151.863281 266.238281 L 194.269531 266.238281 L 194.269531 250.71875 "/>
<path style=" stroke:none;fill-rule:nonzero;fill:rgb(100%,100%,100%);fill-opacity:1;" d="M 286.34375 266.238281 L 286.34375 250.71875 L 243.9375 250.71875 L 243.9375 266.238281 L 286.34375 266.238281 "/>
<path style=" stroke:none;fill-rule:nonzero;fill:rgb(100%,100%,100%);fill-opacity:1;" d="M 329.796875 266.238281 L 353.460938 266.238281 C 355.066406 261.175781 356.4375 256 357.535156 250.71875 L 329.796875 250.71875 L 329.796875 266.238281 "/>
<path style=" stroke:none;fill-rule:nonzero;fill:rgb(100%,100%,100%);fill-opacity:1;" d="M 243.9375 266.238281 L 194.269531 266.238281 L 194.269531 279.683594 L 243.9375 279.683594 L 243.9375 266.238281 "/>
<path style=" stroke:none;fill-rule:nonzero;fill:rgb(100%,100%,100%);fill-opacity:1;" d="M 151.863281 266.238281 L 103.234375 266.238281 L 103.234375 279.683594 L 151.863281 279.683594 L 151.863281 266.238281 "/>
<path style=" stroke:none;fill-rule:nonzero;fill:rgb(100%,100%,100%);fill-opacity:1;" d="M 286.34375 279.683594 L 329.796875 279.683594 L 329.796875 266.238281 L 286.34375 266.238281 L 286.34375 279.683594 "/>
<path style=" stroke:none;fill-rule:nonzero;fill:rgb(0%,0%,0%);fill-opacity:1;" d="M 103.234375 266.238281 L 70.277344 266.238281 C 71.734375 270.820313 73.386719 275.304688 75.238281 279.683594 L 103.234375 279.683594 L 103.234375 266.238281 "/>
<path style=" stroke:none;fill-rule:nonzero;fill:rgb(0%,0%,0%);fill-opacity:1;" d="M 194.269531 279.683594 L 194.269531 266.238281 L 151.863281 266.238281 L 151.863281 279.683594 L 194.269531 279.683594 "/>
<path style=" stroke:none;fill-rule:nonzero;fill:rgb(0%,0%,0%);fill-opacity:1;" d="M 243.9375 279.683594 L 286.34375 279.683594 L 286.34375 266.238281 L 243.9375 266.238281 L 243.9375 279.683594 "/>
<path style=" stroke:none;fill-rule:nonzero;fill:rgb(0%,0%,0%);fill-opacity:1;" d="M 329.796875 279.683594 L 348.488281 279.683594 C 350.351563 275.304688 351.996094 270.820313 353.460938 266.238281 L 329.796875 266.238281 L 329.796875 279.683594 "/>
<path style=" stroke:none;fill-rule:nonzero;fill:rgb(0%,0%,0%);fill-opacity:1;" d="M 286.34375 295.203125 L 329.796875 295.203125 L 329.796875 279.683594 L 286.34375 279.683594 L 286.34375 295.203125 "/>
<path style=" stroke:none;fill-rule:nonzero;fill:rgb(0%,0%,0%);fill-opacity:1;" d="M 194.269531 279.683594 L 194.269531 295.203125 L 243.9375 295.203125 L 243.9375 279.683594 L 194.269531 279.683594 "/>
<path style=" stroke:none;fill-rule:nonzero;fill:rgb(0%,0%,0%);fill-opacity:1;" d="M 151.863281 279.683594 L 103.234375 279.683594 L 103.234375 295.203125 L 151.863281 295.203125 L 151.863281 279.683594 "/>
<path style=" stroke:none;fill-rule:nonzero;fill:rgb(100%,100%,100%);fill-opacity:1;" d="M 103.234375 279.683594 L 75.238281 279.683594 C 77.503906 285.023438 80.0625 290.199219 82.882813 295.203125 L 103.234375 295.203125 L 103.234375 279.683594 "/>
<path style=" stroke:none;fill-rule:nonzero;fill:rgb(100%,100%,100%);fill-opacity:1;" d="M 151.863281 279.683594 L 151.863281 295.203125 L 194.269531 295.203125 L 194.269531 279.683594 L 151.863281 279.683594 "/>
<path style=" stroke:none;fill-rule:nonzero;fill:rgb(100%,100%,100%);fill-opacity:1;" d="M 243.9375 295.203125 L 286.34375 295.203125 L 286.34375 279.683594 L 243.9375 279.683594 L 243.9375 295.203125 "/>
<path style=" stroke:none;fill-rule:nonzero;fill:rgb(100%,100%,100%);fill-opacity:1;" d="M 329.796875 295.203125 L 340.851563 295.203125 C 343.671875 290.199219 346.230469 285.023438 348.488281 279.683594 L 329.796875 279.683594 L 329.796875 295.203125 "/>
<path style=" stroke:none;fill-rule:nonzero;fill:rgb(100%,100%,100%);fill-opacity:1;" d="M 103.234375 295.203125 L 103.234375 308.648438 L 151.863281 308.648438 L 151.863281 295.203125 L 103.234375 295.203125 "/>
<path style=" stroke:none;fill-rule:nonzero;fill:rgb(100%,100%,100%);fill-opacity:1;" d="M 194.269531 308.648438 L 243.9375 308.648438 L 243.9375 295.203125 L 194.269531 295.203125 L 194.269531 308.648438 "/>
<path style=" stroke:none;fill-rule:nonzero;fill:rgb(100%,100%,100%);fill-opacity:1;" d="M 286.34375 308.648438 L 329.796875 308.648438 L 329.796875 295.203125 L 286.34375 295.203125 L 286.34375 308.648438 "/>
<path style=" stroke:none;fill-rule:nonzero;fill:rgb(0%,0%,0%);fill-opacity:1;" d="M 103.234375 295.203125 L 82.882813 295.203125 C 85.492188 299.84375 88.328125 304.332031 91.386719 308.648438 L 103.234375 308.648438 L 103.234375 295.203125 "/>
<path style=" stroke:none;fill-rule:nonzero;fill:rgb(0%,0%,0%);fill-opacity:1;" d="M 194.269531 295.203125 L 151.863281 295.203125 L 151.863281 308.648438 L 194.269531 308.648438 L 194.269531 295.203125 "/>
<path style=" stroke:none;fill-rule:nonzero;fill:rgb(0%,0%,0%);fill-opacity:1;" d="M 243.9375 295.203125 L 243.9375 308.648438 L 286.34375 308.648438 L 286.34375 295.203125 L 243.9375 295.203125 "/>
<path style=" stroke:none;fill-rule:nonzero;fill:rgb(0%,0%,0%);fill-opacity:1;" d="M 329.796875 308.648438 L 332.351563 308.648438 C 335.402344 304.332031 338.238281 299.84375 340.851563 295.203125 L 329.796875 295.203125 L 329.796875 308.648438 "/>
<path style="fill:none;stroke-width:10;stroke-linecap:butt;stroke-linejoin:miter;stroke:rgb(100%,0%,0%);stroke-opacity:1;stroke-miterlimit:4;" d="M 1032.34375 1139.40625 L 1032.34375 1131.320313 L 1039.882813 1131.320313 C 1037.382813 1134.015625 1034.84375 1136.710938 1032.34375 1139.40625 Z M 1032.34375 1139.40625 " transform="matrix(0.1,0,0,-0.1,0,437.3)"/>
<path style=" stroke:none;fill-rule:nonzero;fill:rgb(0%,0%,0%);fill-opacity:1;" d="M 194.269531 324.167969 L 243.9375 324.167969 L 243.9375 308.648438 L 194.269531 308.648438 L 194.269531 324.167969 "/>
<path style=" stroke:none;fill-rule:nonzero;fill:rgb(0%,0%,0%);fill-opacity:1;" d="M 286.34375 308.648438 L 286.34375 324.167969 L 319.746094 324.167969 C 323.285156 320.339844 326.644531 316.332031 329.796875 312.144531 L 329.796875 308.648438 L 286.34375 308.648438 "/>
<path style=" stroke:none;fill-rule:nonzero;fill:rgb(0%,0%,0%);fill-opacity:1;" d="M 151.863281 324.167969 L 151.863281 308.648438 L 103.234375 308.648438 L 103.234375 323.359375 C 103.484375 323.628906 103.738281 323.898438 103.988281 324.167969 L 151.863281 324.167969 "/>
<path style=" stroke:none;fill-rule:nonzero;fill:rgb(100%,100%,100%);fill-opacity:1;" d="M 91.386719 308.648438 C 95.039063 313.804688 98.996094 318.714844 103.234375 323.359375 L 103.234375 308.648438 L 91.386719 308.648438 "/>
<path style=" stroke:none;fill-rule:nonzero;fill:rgb(100%,100%,100%);fill-opacity:1;" d="M 194.269531 308.648438 L 151.863281 308.648438 L 151.863281 324.167969 L 194.269531 324.167969 L 194.269531 308.648438 "/>
<path style=" stroke:none;fill-rule:nonzero;fill:rgb(100%,100%,100%);fill-opacity:1;" d="M 243.9375 324.167969 L 286.34375 324.167969 L 286.34375 308.648438 L 243.9375 308.648438 L 243.9375 324.167969 "/>
<path style=" stroke:none;fill-rule:nonzero;fill:rgb(100%,100%,100%);fill-opacity:1;" d="M 329.796875 312.144531 C 330.660156 310.992188 331.515625 309.828125 332.351563 308.648438 L 329.796875 308.648438 L 329.796875 312.144531 "/>
<path style=" stroke:none;fill-rule:nonzero;fill:rgb(100%,100%,100%);fill-opacity:1;" d="M 306.855469 336.582031 C 311.394531 332.714844 315.6875 328.554688 319.746094 324.167969 L 286.34375 324.167969 L 286.34375 336.582031 L 306.855469 336.582031 "/>
<path style=" stroke:none;fill-rule:nonzero;fill:rgb(100%,100%,100%);fill-opacity:1;" d="M 103.988281 324.167969 C 108.050781 328.554688 112.335938 332.714844 116.875 336.582031 L 151.863281 336.582031 L 151.863281 324.167969 L 103.988281 324.167969 "/>
<path style=" stroke:none;fill-rule:nonzero;fill:rgb(100%,100%,100%);fill-opacity:1;" d="M 194.269531 336.582031 L 243.9375 336.582031 L 243.9375 324.167969 L 194.269531 324.167969 L 194.269531 336.582031 "/>
<path style=" stroke:none;fill-rule:nonzero;fill:rgb(0%,0%,0%);fill-opacity:1;" d="M 194.269531 324.167969 L 151.863281 324.167969 L 151.863281 336.582031 L 194.269531 336.582031 L 194.269531 324.167969 "/>
<path style=" stroke:none;fill-rule:nonzero;fill:rgb(0%,0%,0%);fill-opacity:1;" d="M 243.9375 336.582031 L 286.34375 336.582031 L 286.34375 324.167969 L 243.9375 324.167969 L 243.9375 336.582031 "/>
<path style=" stroke:none;fill-rule:nonzero;fill:rgb(0%,0%,0%);fill-opacity:1;" d="M 151.863281 336.582031 L 116.875 336.582031 C 123.195313 341.96875 129.980469 346.796875 137.117188 351.0625 L 151.863281 351.0625 L 151.863281 336.582031 "/>
<path style=" stroke:none;fill-rule:nonzero;fill:rgb(0%,0%,0%);fill-opacity:1;" d="M 194.269531 336.582031 L 194.269531 351.0625 L 243.9375 351.0625 L 243.9375 336.582031 L 194.269531 336.582031 "/>
<path style=" stroke:none;fill-rule:nonzero;fill:rgb(0%,0%,0%);fill-opacity:1;" d="M 286.34375 336.582031 L 286.34375 351.0625 L 286.613281 351.0625 C 293.757813 346.796875 300.535156 341.96875 306.855469 336.582031 L 286.34375 336.582031 "/>
<path style=" stroke:none;fill-rule:nonzero;fill:rgb(100%,100%,100%);fill-opacity:1;" d="M 151.863281 336.582031 L 151.863281 351.0625 L 194.269531 351.0625 L 194.269531 336.582031 L 151.863281 336.582031 "/>
<path style=" stroke:none;fill-rule:nonzero;fill:rgb(100%,100%,100%);fill-opacity:1;" d="M 243.9375 351.0625 L 286.34375 351.0625 L 286.34375 336.582031 L 243.9375 336.582031 L 243.9375 351.0625 "/>
<path style=" stroke:none;fill-rule:nonzero;fill:rgb(100%,100%,100%);fill-opacity:1;" d="M 194.269531 351.0625 L 194.269531 364.511719 L 243.9375 364.511719 L 243.9375 351.0625 L 194.269531 351.0625 "/>
<path style=" stroke:none;fill-rule:nonzero;fill:rgb(100%,100%,100%);fill-opacity:1;" d="M 137.117188 351.0625 C 141.875 353.90625 146.792969 356.488281 151.863281 358.785156 L 151.863281 351.0625 L 137.117188 351.0625 "/>
<path style="fill:none;stroke-width:9.544;stroke-linecap:butt;stroke-linejoin:miter;stroke:rgb(100%,0%,0%);stroke-opacity:1;stroke-miterlimit:4;" d="M 2863.4375 860.734375 C 2864.375 861.28125 2865.195313 861.828125 2866.132813 862.375 L 2863.4375 862.375 Z M 2863.4375 860.734375 " transform="matrix(0.1,0,0,-0.1,0,437.3)"/>
<path style=" stroke:none;fill-rule:nonzero;fill:rgb(0%,0%,0%);fill-opacity:1;" d="M 151.863281 351.0625 L 151.863281 358.785156 C 156.632813 360.945313 161.519531 362.867188 166.535156 364.511719 L 194.269531 364.511719 L 194.269531 351.0625 L 151.863281 351.0625 "/>
<path style=" stroke:none;fill-rule:nonzero;fill:rgb(0%,0%,0%);fill-opacity:1;" d="M 243.9375 351.0625 L 243.9375 364.511719 L 257.191406 364.511719 C 267.441406 361.152344 277.191406 356.667969 286.34375 351.226563 L 286.34375 351.0625 L 243.9375 351.0625 "/>
<path style=" stroke:none;fill-rule:nonzero;fill:rgb(0%,0%,0%);fill-opacity:1;" d="M 194.269531 364.511719 L 194.269531 370.65625 C 200.046875 371.351563 205.910156 371.753906 211.863281 371.753906 C 222.882813 371.753906 233.601563 370.488281 243.9375 368.15625 L 243.9375 364.511719 L 194.269531 364.511719 "/>
<path style=" stroke:none;fill-rule:nonzero;fill:rgb(100%,100%,100%);fill-opacity:1;" d="M 166.535156 364.511719 C 175.441406 367.433594 184.726563 369.5 194.269531 370.65625 L 194.269531 364.511719 L 166.535156 364.511719 "/>
<path style=" stroke:none;fill-rule:nonzero;fill:rgb(100%,100%,100%);fill-opacity:1;" d="M 243.9375 364.511719 L 243.9375 368.15625 C 248.4375 367.144531 252.855469 365.933594 257.191406 364.511719 L 243.9375 364.511719 "/>
<path style=" stroke:none;fill-rule:nonzero;fill:rgb(100%,100%,100%);fill-opacity:1;" d="M 281.222656 145.679688 L 143.636719 145.679688 L 143.636719 200.507813 L 281.222656 200.507813 L 281.222656 145.679688 "/>
<path style=" stroke:none;fill-rule:nonzero;fill:rgb(0%,0%,0%);fill-opacity:1;" d="M 192.257813 168.964844 C 192.257813 157.820313 201.289063 148.785156 212.433594 148.785156 C 223.578125 148.785156 232.613281 157.820313 232.613281 168.964844 L 232.613281 200.507813 L 191.222656 200.507813 L 192.257813 168.964844 "/>
<path style=" stroke:none;fill-rule:nonzero;fill:rgb(0%,0%,0%);fill-opacity:1;" d="M 247.769531 168.964844 C 247.769531 157.820313 253.867188 148.785156 261.390625 148.785156 C 268.914063 148.785156 275.015625 157.820313 275.015625 168.964844 L 275.015625 200.507813 L 247.066406 200.507813 L 247.769531 168.964844 "/>
<path style=" stroke:none;fill-rule:nonzero;fill:rgb(0%,0%,0%);fill-opacity:1;" d="M 225.371094 84.644531 L 215.027344 84.644531 L 215.027344 77.402344 L 210.890625 77.402344 L 210.890625 84.644531 L 200.546875 84.644531 L 200.546875 87.75 L 210.890625 87.75 L 210.890625 100.164063 L 215.027344 100.164063 L 215.027344 87.75 L 225.371094 87.75 L 225.371094 84.644531 "/>
<path style=" stroke:none;fill-rule:nonzero;fill:rgb(100%,0%,0%);fill-opacity:1;" d="M 212.339844 97.058594 L 140.53125 145.679688 L 284.339844 145.679688 Z M 212.339844 97.058594 "/>
<path style=" stroke:none;fill-rule:nonzero;fill:rgb(0%,0%,0%);fill-opacity:1;" d="M 151.5625 168.964844 C 151.5625 157.820313 157.660156 148.785156 165.1875 148.785156 C 172.710938 148.785156 178.808594 157.820313 178.808594 168.964844 L 178.808594 200.507813 L 150.863281 200.507813 L 151.5625 168.964844 "/>
<path style=" stroke:none;fill-rule:nonzero;fill:rgb(100%,0%,0%);fill-opacity:1;" d="M 382.824219 207.457031 L 388.824219 196.492188 L 393.878906 207.921875 L 406.164063 210.246094 L 396.851563 218.585938 L 398.441406 230.988281 L 387.632813 224.707031 L 376.324219 230.050781 L 378.960938 217.824219 L 370.386719 208.726563 L 382.824219 207.457031 "/>
<path style=" stroke:none;fill-rule:nonzero;fill:rgb(100%,0%,0%);fill-opacity:1;" d="M 28.011719 207.457031 L 34.011719 196.492188 L 39.0625 207.921875 L 51.347656 210.246094 L 42.035156 218.585938 L 43.628906 230.988281 L 32.816406 224.707031 L 21.511719 230.050781 L 24.144531 217.824219 L 15.570313 208.726563 L 28.011719 207.457031 "/>
<path style=" stroke:none;fill-rule:nonzero;fill:rgb(0%,0%,0%);fill-opacity:1;" d="M 37.761719 165.902344 C 31.632813 163.308594 27.527344 159.632813 25.449219 154.875 C 23.371094 150.113281 23.433594 145.128906 25.636719 139.917969 C 27.078125 136.503906 29.195313 133.773438 31.980469 131.722656 C 34.769531 129.671875 37.921875 128.542969 41.445313 128.335938 C 44.96875 128.132813 48.578125 128.808594 52.273438 130.371094 C 56.019531 131.953125 59.050781 134.128906 61.367188 136.890625 C 63.683594 139.652344 65.019531 142.742188 65.363281 146.160156 C 65.714844 149.574219 65.210938 152.886719 63.851563 156.097656 C 62.382813 159.578125 60.226563 162.332031 57.390625 164.363281 C 54.550781 166.390625 51.382813 167.5 47.878906 167.683594 C 44.378906 167.867188 41.003906 167.273438 37.761719 165.902344 M 39.964844 160.863281 C 44.414063 162.742188 48.425781 163.027344 51.996094 161.71875 C 55.566406 160.410156 58.113281 157.953125 59.640625 154.347656 C 61.191406 150.671875 61.175781 147.101563 59.59375 143.636719 C 58.011719 140.167969 54.84375 137.429688 50.09375 135.421875 C 47.089844 134.152344 44.246094 133.550781 41.578125 133.617188 C 38.90625 133.683594 36.542969 134.4375 34.480469 135.867188 C 32.421875 137.304688 30.878906 139.234375 29.847656 141.667969 C 28.390625 145.125 28.320313 148.601563 29.644531 152.09375 C 30.96875 155.589844 34.40625 158.511719 39.964844 160.863281 "/>
<path style=" stroke:none;fill-rule:nonzero;fill:rgb(0%,0%,0%);fill-opacity:1;" d="M 74.984375 132.332031 L 42.929688 108.199219 L 59.246094 86.527344 L 63.039063 89.386719 L 49.921875 106.808594 L 59.804688 114.253906 L 71.160156 99.175781 L 74.957031 102.03125 L 63.601563 117.113281 L 78.179688 128.089844 L 74.984375 132.332031 "/>
<path style=" stroke:none;fill-rule:nonzero;fill:rgb(0%,0%,0%);fill-opacity:1;" d="M 96.691406 105.242188 L 70.589844 74.765625 L 91.191406 57.121094 L 94.28125 60.726563 L 77.714844 74.917969 L 85.765625 84.316406 L 100.101563 72.039063 L 103.191406 75.644531 L 88.855469 87.921875 L 100.726563 101.785156 L 96.691406 105.242188 "/>
<path style=" stroke:none;fill-rule:nonzero;fill:rgb(0%,0%,0%);fill-opacity:1;" d="M 125.070313 83.140625 L 104.1875 48.878906 L 108.726563 46.113281 L 129.609375 80.375 L 125.070313 83.140625 "/>
<path style=" stroke:none;fill-rule:nonzero;fill:rgb(0%,0%,0%);fill-opacity:1;" d="M 160.035156 51.304688 L 165.476563 50.644531 C 166.007813 55.117188 165.339844 58.941406 163.46875 62.117188 C 161.597656 65.296875 158.714844 67.636719 154.820313 69.140625 C 150.789063 70.695313 147.191406 71.136719 144.03125 70.46875 C 140.875 69.800781 138.035156 68.164063 135.515625 65.554688 C 132.992188 62.945313 131.046875 59.855469 129.664063 56.277344 C 128.160156 52.378906 127.59375 48.691406 127.960938 45.214844 C 128.328125 41.738281 129.597656 38.714844 131.761719 36.148438 C 133.925781 33.582031 136.65625 31.664063 139.957031 30.390625 C 143.699219 28.949219 147.214844 28.6875 150.5 29.613281 C 153.785156 30.539063 156.601563 32.539063 158.9375 35.609375 L 154.480469 38.644531 C 152.566406 36.257813 150.550781 34.761719 148.425781 34.15625 C 146.300781 33.546875 143.988281 33.726563 141.496094 34.6875 C 138.632813 35.792969 136.5 37.40625 135.105469 39.527344 C 133.710938 41.648438 133.070313 44.019531 133.1875 46.640625 C 133.304688 49.265625 133.835938 51.808594 134.785156 54.273438 C 136.015625 57.453125 137.546875 60.054688 139.390625 62.070313 C 141.230469 64.082031 143.351563 65.300781 145.757813 65.722656 C 148.164063 66.140625 150.503906 65.914063 152.777344 65.035156 C 155.546875 63.96875 157.582031 62.265625 158.886719 59.925781 C 160.1875 57.585938 160.570313 54.714844 160.035156 51.304688 "/>
<path style=" stroke:none;fill-rule:nonzero;fill:rgb(0%,0%,0%);fill-opacity:1;" d="M 178.394531 61.566406 L 170.820313 22.164063 L 176.035156 21.160156 L 183.609375 60.566406 L 178.394531 61.566406 "/>
<path style=" stroke:none;fill-rule:nonzero;fill:rgb(0%,0%,0%);fill-opacity:1;" d="M 189.507813 58.578125 L 204.0625 18.171875 L 209.855469 18.0625 L 226.972656 57.875 L 220.933594 57.988281 L 216.070313 45.953125 L 199.234375 46.265625 L 195.121094 58.472656 L 189.507813 58.578125 M 200.71875 41.925781 L 214.320313 41.671875 L 209.976563 30.609375 C 208.617188 27.269531 207.601563 24.5 206.914063 22.304688 C 206.417969 24.910156 205.730469 27.492188 204.855469 30.042969 L 200.71875 41.925781 "/>
<path style=" stroke:none;fill-rule:nonzero;fill:rgb(0%,0%,0%);fill-opacity:1;" d="M 231.476563 59.070313 L 239.261719 19.707031 L 244.472656 20.738281 L 237.605469 55.441406 L 256.921875 59.257813 L 256 63.917969 L 231.476563 59.070313 "/>
<path style=" stroke:none;fill-rule:nonzero;fill:rgb(0%,0%,0%);fill-opacity:1;" d="M 281.847656 59.328125 L 286.4375 61.355469 C 285.679688 63.226563 285.363281 64.933594 285.5 66.476563 C 285.636719 68.019531 286.304688 69.574219 287.511719 71.144531 C 288.71875 72.714844 290.316406 74.046875 292.304688 75.140625 C 294.066406 76.109375 295.769531 76.703125 297.410156 76.917969 C 299.050781 77.136719 300.453125 76.964844 301.621094 76.410156 C 302.785156 75.851563 303.664063 75.035156 304.265625 73.949219 C 304.867188 72.847656 305.085938 71.71875 304.914063 70.554688 C 304.742188 69.386719 304.078125 68.125 302.917969 66.757813 C 302.179688 65.875 300.414063 64.160156 297.621094 61.613281 C 294.824219 59.066406 292.972656 57.09375 292.058594 55.691406 C 290.863281 53.886719 290.214844 52.105469 290.109375 50.347656 C 290.007813 48.589844 290.398438 46.902344 291.289063 45.28125 C 292.269531 43.503906 293.6875 42.117188 295.539063 41.125 C 297.394531 40.132813 299.507813 39.765625 301.878906 40.027344 C 304.246094 40.289063 306.613281 41.066406 308.972656 42.367188 C 311.570313 43.796875 313.632813 45.476563 315.152344 47.410156 C 316.675781 49.34375 317.519531 51.417969 317.691406 53.636719 C 317.859375 55.859375 317.417969 58.023438 316.363281 60.128906 L 311.746094 58.019531 C 312.71875 55.683594 312.824219 53.574219 312.066406 51.691406 C 311.308594 49.804688 309.582031 48.125 306.890625 46.640625 C 304.085938 45.097656 301.757813 44.488281 299.90625 44.808594 C 298.058594 45.132813 296.730469 46.023438 295.933594 47.472656 C 295.238281 48.734375 295.121094 50.023438 295.582031 51.335938 C 296.027344 52.640625 297.898438 54.757813 301.199219 57.6875 C 304.496094 60.613281 306.671875 62.78125 307.71875 64.191406 C 309.234375 66.25 310.078125 68.269531 310.257813 70.25 C 310.429688 72.226563 309.996094 74.15625 308.964844 76.039063 C 307.9375 77.90625 306.433594 79.371094 304.457031 80.4375 C 302.480469 81.5 300.242188 81.941406 297.738281 81.761719 C 295.234375 81.578125 292.734375 80.800781 290.234375 79.421875 C 287.066406 77.679688 284.667969 75.753906 283.035156 73.652344 C 281.402344 71.546875 280.492188 69.230469 280.296875 66.699219 C 280.101563 64.167969 280.617188 61.710938 281.847656 59.328125 "/>
<path style=" stroke:none;fill-rule:nonzero;fill:rgb(0%,0%,0%);fill-opacity:1;" d="M 309.8125 90.664063 L 336.773438 60.949219 L 358.203125 80.394531 L 355.015625 83.910156 L 337.519531 68.035156 L 329.285156 77.109375 L 345.671875 91.976563 L 342.480469 95.492188 L 326.09375 80.625 L 316.9375 90.71875 L 335.128906 107.222656 L 331.9375 110.738281 L 309.8125 90.664063 "/>
<path style=" stroke:none;fill-rule:nonzero;fill:rgb(0%,0%,0%);fill-opacity:1;" d="M 334.394531 113.023438 L 376.144531 102.949219 L 379.425781 107.730469 L 355.59375 143.925781 L 352.175781 138.941406 L 359.554688 128.261719 L 350.027344 114.375 L 337.574219 117.65625 L 334.394531 113.023438 M 354.46875 113.222656 L 362.164063 124.445313 L 369.015625 114.730469 C 371.058594 111.761719 372.808594 109.386719 374.265625 107.609375 C 371.8125 108.625 369.28125 109.46875 366.667969 110.144531 L 354.46875 113.222656 "/>
<path style=" stroke:none;fill-rule:nonzero;fill:rgb(0%,0%,0%);fill-opacity:1;" d="M 357.097656 148.355469 L 394.257813 133.222656 L 396.261719 138.140625 L 363.5 151.484375 L 370.925781 169.71875 L 366.523438 171.507813 L 357.097656 148.355469 "/>
<path style=" stroke:none;fill-rule:nonzero;fill:rgb(0%,0%,0%);fill-opacity:1;" d="M 40.070313 291.121094 L 40.441406 296.972656 C 35.632813 297.261719 31.589844 296.308594 28.316406 294.113281 C 25.035156 291.914063 22.71875 288.6875 21.351563 284.429688 C 19.941406 280.027344 19.691406 276.15625 20.597656 272.824219 C 21.507813 269.488281 23.429688 266.554688 26.371094 264.027344 C 29.308594 261.496094 32.730469 259.605469 36.636719 258.355469 C 40.890625 256.992188 44.859375 256.613281 48.550781 257.226563 C 52.238281 257.835938 55.386719 259.375 57.992188 261.847656 C 60.597656 264.324219 62.480469 267.359375 63.636719 270.964844 C 64.945313 275.050781 65.003906 278.820313 63.816406 282.273438 C 62.621094 285.730469 60.316406 288.609375 56.894531 290.914063 L 53.921875 285.957031 C 56.59375 284.0625 58.316406 281.996094 59.09375 279.765625 C 59.871094 277.535156 59.828125 275.054688 58.957031 272.332031 C 57.953125 269.199219 56.359375 266.824219 54.179688 265.199219 C 52.003906 263.578125 49.511719 262.75 46.703125 262.707031 C 43.898438 262.667969 41.148438 263.078125 38.457031 263.941406 C 34.980469 265.054688 32.113281 266.53125 29.847656 268.371094 C 27.582031 270.214844 26.152344 272.40625 25.554688 274.953125 C 24.957031 277.496094 25.054688 280.015625 25.851563 282.503906 C 26.824219 285.527344 28.519531 287.808594 30.933594 289.347656 C 33.351563 290.886719 36.398438 291.476563 40.070313 291.121094 "/>
<path style=" stroke:none;fill-rule:nonzero;fill:rgb(0%,0%,0%);fill-opacity:1;" d="M 35.90625 317.84375 L 74.011719 298.058594 L 76.632813 303.105469 L 38.527344 322.890625 L 35.90625 317.84375 "/>
<path style=" stroke:none;fill-rule:nonzero;fill:rgb(0%,0%,0%);fill-opacity:1;" d="M 55.140625 349.355469 L 85.398438 326.574219 L 76.902344 315.289063 L 80.945313 312.246094 L 101.355469 339.355469 L 97.316406 342.402344 L 88.820313 331.117188 L 58.558594 353.898438 L 55.140625 349.355469 "/>
<path style=" stroke:none;fill-rule:nonzero;fill:rgb(0%,0%,0%);fill-opacity:1;" d="M 90.320313 386.324219 L 101.425781 371.917969 L 103.417969 342.203125 L 108.828125 346.375 L 107.613281 361.839844 C 107.394531 364.714844 107.078125 367.53125 106.660156 370.292969 C 109.101563 369.289063 111.910156 368.246094 115.089844 367.15625 L 129.359375 362.203125 L 134.601563 366.242188 L 105.929688 375.390625 L 94.824219 389.792969 L 90.320313 386.324219 "/>
<path style=" stroke:none;fill-rule:nonzero;fill:rgb(0%,0%,0%);fill-opacity:1;" d="M 152.304688 397.808594 C 153.773438 390.84375 156.796875 385.789063 161.378906 382.636719 C 165.957031 379.488281 171.214844 378.535156 177.144531 379.785156 C 181.03125 380.605469 184.339844 382.269531 187.066406 384.777344 C 189.796875 387.285156 191.628906 390.367188 192.566406 394.023438 C 193.507813 397.679688 193.53125 401.605469 192.648438 405.800781 C 191.753906 410.058594 190.089844 413.683594 187.65625 416.679688 C 185.230469 419.675781 182.253906 421.703125 178.730469 422.765625 C 175.210938 423.828125 171.621094 423.972656 167.96875 423.203125 C 164.007813 422.367188 160.667969 420.667969 157.949219 418.101563 C 155.234375 415.539063 153.421875 412.433594 152.507813 408.792969 C 151.597656 405.15625 151.527344 401.492188 152.304688 397.808594 M 158.039063 399.09375 C 156.972656 404.148438 157.496094 408.417969 159.609375 411.902344 C 161.722656 415.382813 164.835938 417.558594 168.945313 418.425781 C 173.132813 419.308594 176.890625 418.566406 180.214844 416.199219 C 183.539063 413.832031 185.769531 409.945313 186.910156 404.546875 C 187.628906 401.132813 187.679688 398.03125 187.058594 395.242188 C 186.4375 392.449219 185.160156 390.121094 183.230469 388.246094 C 181.296875 386.375 178.941406 385.148438 176.171875 384.5625 C 172.230469 383.730469 168.558594 384.367188 165.148438 386.46875 C 161.738281 388.570313 159.367188 392.777344 158.039063 399.09375 "/>
<path style=" stroke:none;fill-rule:nonzero;fill:rgb(0%,0%,0%);fill-opacity:1;" d="M 209.976563 427.941406 L 206.730469 385.125 L 235.585938 382.941406 L 235.96875 387.988281 L 212.785156 389.746094 L 213.789063 403.019531 L 233.855469 401.5 L 234.238281 406.546875 L 214.171875 408.066406 L 215.644531 427.511719 L 209.976563 427.941406 "/>
<path style=" stroke:none;fill-rule:nonzero;fill:rgb(0%,0%,0%);fill-opacity:1;" d="M 304.8125 387.476563 L 310.570313 386.359375 C 311.472656 391.089844 311.046875 395.21875 309.285156 398.753906 C 307.527344 402.285156 304.621094 405 300.578125 406.898438 C 296.390625 408.863281 292.585938 409.609375 289.164063 409.132813 C 285.738281 408.660156 282.585938 407.128906 279.699219 404.539063 C 276.8125 401.949219 274.5 398.796875 272.761719 395.089844 C 270.859375 391.042969 269.976563 387.152344 270.109375 383.414063 C 270.238281 379.679688 271.363281 376.359375 273.480469 373.457031 C 275.601563 370.554688 278.371094 368.300781 281.800781 366.691406 C 285.683594 364.871094 289.414063 364.328125 292.992188 365.0625 C 296.570313 365.800781 299.722656 367.71875 302.449219 370.820313 L 297.914063 374.398438 C 295.691406 371.996094 293.425781 370.554688 291.109375 370.066406 C 288.796875 369.582031 286.347656 369.945313 283.757813 371.160156 C 280.777344 372.554688 278.625 374.441406 277.296875 376.808594 C 275.96875 379.175781 275.464844 381.753906 275.78125 384.542969 C 276.105469 387.332031 276.863281 390.007813 278.0625 392.566406 C 279.613281 395.867188 281.445313 398.523438 283.5625 400.535156 C 285.683594 402.542969 288.039063 403.683594 290.640625 403.949219 C 293.242188 404.214844 295.722656 403.792969 298.089844 402.679688 C 300.964844 401.332031 303.011719 399.359375 304.226563 396.765625 C 305.441406 394.171875 305.636719 391.074219 304.8125 387.476563 "/>
<path style=" stroke:none;fill-rule:nonzero;fill:rgb(0%,0%,0%);fill-opacity:1;" d="M 333.886719 386.628906 L 305.144531 354.734375 L 328.171875 333.980469 L 331.558594 337.742188 L 312.757813 354.6875 L 321.542969 364.4375 L 339.140625 348.578125 L 342.527344 352.339844 L 324.933594 368.199219 L 334.722656 379.0625 L 354.269531 361.445313 L 357.65625 365.207031 L 333.886719 386.628906 "/>
<path style=" stroke:none;fill-rule:nonzero;fill:rgb(0%,0%,0%);fill-opacity:1;" d="M 371.421875 348.007813 L 334.4375 326.191406 L 342.636719 312.300781 C 344.304688 309.472656 346.015625 307.425781 347.773438 306.160156 C 349.53125 304.894531 351.476563 304.234375 353.605469 304.1875 C 355.730469 304.136719 357.648438 304.617188 359.351563 305.617188 C 360.933594 306.554688 362.171875 307.863281 363.058594 309.550781 C 363.949219 311.238281 364.3125 313.207031 364.140625 315.453125 C 366.117188 313.597656 368.253906 312.535156 370.539063 312.261719 C 372.828125 311.988281 375.050781 312.488281 377.199219 313.753906 C 378.929688 314.777344 380.320313 316.089844 381.371094 317.699219 C 382.429688 319.308594 383.039063 320.890625 383.210938 322.441406 C 383.382813 323.992188 383.195313 325.703125 382.648438 327.570313 C 382.101563 329.4375 381.132813 331.546875 379.742188 333.902344 L 371.421875 348.007813 M 352.886719 330.46875 L 357.605469 322.476563 C 358.882813 320.308594 359.65625 318.667969 359.925781 317.554688 C 360.289063 316.09375 360.230469 314.792969 359.738281 313.65625 C 359.253906 312.519531 358.359375 311.566406 357.0625 310.800781 C 355.835938 310.074219 354.578125 309.730469 353.296875 309.769531 C 352.011719 309.804688 350.878906 310.265625 349.886719 311.15625 C 348.894531 312.046875 347.617188 313.820313 346.050781 316.476563 L 341.6875 323.863281 L 352.886719 330.46875 M 369.949219 340.539063 L 375.390625 331.320313 C 376.320313 329.738281 376.917969 328.59375 377.179688 327.882813 C 377.644531 326.636719 377.863281 325.496094 377.839844 324.460938 C 377.8125 323.425781 377.496094 322.398438 376.886719 321.378906 C 376.277344 320.363281 375.382813 319.503906 374.207031 318.8125 C 372.828125 318 371.421875 317.648438 369.980469 317.761719 C 368.546875 317.875 367.25 318.4375 366.101563 319.449219 C 364.949219 320.457031 363.679688 322.140625 362.289063 324.492188 L 357.246094 333.042969 L 369.949219 340.539063 "/>
<path style=" stroke:none;fill-rule:nonzero;fill:rgb(0%,0%,0%);fill-opacity:1;" d="M 361.882813 262.21875 L 363.390625 256.734375 L 387.285156 263.3125 C 391.441406 264.457031 394.613281 265.839844 396.796875 267.453125 C 398.980469 269.070313 400.503906 271.316406 401.359375 274.199219 C 402.214844 277.082031 402.09375 280.519531 400.992188 284.515625 C 399.921875 288.398438 398.382813 291.390625 396.363281 293.492188 C 394.351563 295.59375 391.933594 296.824219 389.113281 297.183594 C 386.292969 297.542969 382.691406 297.121094 378.3125 295.914063 L 354.414063 289.335938 L 355.925781 283.851563 L 379.789063 290.421875 C 383.382813 291.410156 386.117188 291.804688 388.007813 291.601563 C 389.894531 291.402344 391.519531 290.613281 392.890625 289.238281 C 394.261719 287.859375 395.269531 285.992188 395.917969 283.636719 C 397.027344 279.601563 396.90625 276.476563 395.558594 274.257813 C 394.203125 272.039063 390.9375 270.21875 385.742188 268.789063 L 361.882813 262.21875 "/>
</g>
</svg>
